Coordinates
version=1
nRows=5
nColumns=63
inDegrees=yes

Units are S.I. units (second, meters, Newtons, ...)
If the header above contains a line with 'inDegrees', this indicates whether rotational values are in degrees (yes) or radians (no).

endheader
time	pelvis_tilt	pelvis_list	pelvis_rotation	pelvis_tx	pelvis_ty	pelvis_tz	hip_flexion_r	hip_adduction_r	hip_rotation_r	knee_angle_r	knee_angle_r_beta	ankle_angle_r	subtalar_angle_r	mtp_angle_r	hip_flexion_l	hip_adduction_l	hip_rotation_l	knee_angle_l	knee_angle_l_beta	ankle_angle_l	subtalar_angle_l	mtp_angle_l	L5_S1_Flex_Ext	L5_S1_Lat_Bending	L5_S1_axial_rotation	L4_L5_Flex_Ext	L4_L5_Lat_Bending	L4_L5_axial_rotation	L3_L4_Flex_Ext	L3_L4_Lat_Bending	L3_L4_axial_rotation	L2_L3_Flex_Ext	L2_L3_Lat_Bending	L2_L3_axial_rotation	L1_L2_Flex_Ext	L1_L2_Lat_Bending	L1_L2_axial_rotation	L1_T12_Flex_Ext	L1_T12_Lat_Bending	L1_T12_axial_rotation	Abs_r3	Abs_r2	Abs_r1	Abs_t1	Abs_t2	neck_flexion	neck_bending	neck_rotation	arm_flex_r	arm_add_r	arm_rot_r	elbow_flex_r	pro_sup_r	wrist_flex_r	wrist_dev_r	arm_flex_l	arm_add_l	arm_rot_l	elbow_flex_l	pro_sup_l	wrist_flex_l	wrist_dev_l
      3.88333333	      3.79535840	     -9.36518230	    111.34232518	      0.34599823	      0.53444311	      0.89629425	      7.56901555	     -1.90730594	    -19.78363264	     10.58686101	      0.18477558	     18.62079434	     16.15704334	      0.00000000	      6.68842717	      1.27447785	     -2.51444063	      4.38743860	      0.07657525	     19.79110047	      1.78766662	      0.00000000	      0.37808044	     -0.08655823	      0.07392430	      0.70213318	     -0.11512245	      0.07854457	      0.62114835	     -0.21045769	      0.07854457	      0.43210813	     -0.21045769	      0.06468376	      0.35108550	     -0.17650955	      0.06006349	      0.21603516	     -0.13407870	      0.05544322	      2.70059076	     -0.97916405	      0.41114478	      0.00000000	      0.00000000	     27.88711067	      2.39831304	      8.92389312	      8.87860719	    -15.75523698	     95.85941371	     15.24443364	     15.58063034	     -5.02401221	     -8.03394109	      2.09560135	    -18.08102518	     69.11667887	     22.68192490	     61.30770624	    -10.65284638	    -18.01868762
      3.90000000	      3.99276017	     -9.61531497	    111.25944885	      0.34591542	      0.53410765	      0.89702343	      7.96751741	     -1.81684003	    -19.85082326	     10.54465421	      0.18403893	     18.49452896	     16.16925377	      0.00000000	      7.07145188	      1.19052745	     -2.61591761	      4.41591887	      0.07707232	     19.55053022	      1.62952502	      0.00000000	      0.41170198	     -0.05346061	      0.12843269	      0.76457175	     -0.07110262	      0.13645973	      0.67638519	     -0.12998414	      0.13645973	      0.47053419	     -0.12998414	      0.11237860	      0.38230646	     -0.10901688	      0.10435156	      0.23524651	     -0.08281049	      0.09632452	      2.94074608	     -0.60475716	      0.71430409	      0.00000000	      0.00000000	     28.01847587	      2.01162342	      9.65202232	      9.36412181	    -16.13254702	     97.13131683	     15.81224324	     16.75616908	     -5.18573148	     -7.82082757	      2.50629502	    -18.49350506	     69.39999376	     24.23253776	     61.79418302	    -10.61737221	    -19.14244784
      3.91666667	      4.03968867	     -9.94877312	    111.00474323	      0.34580943	      0.53348071	      0.89798172	      8.51628280	     -1.94119781	    -19.37741549	     10.69122911	      0.18659715	     18.80787421	     16.12183890	      0.00000000	      7.59801813	      1.31982064	     -2.46624086	      4.67238990	      0.08154859	     19.46843276	      0.70465444	      0.00000000	      0.44870719	     -0.02838258	      0.08378906	      0.83329412	     -0.03774884	      0.08902588	      0.73718104	     -0.06900942	      0.08902588	      0.51282745	     -0.06900942	      0.07331543	      0.41666950	     -0.05787777	      0.06807861	      0.25639129	     -0.04396462	      0.06284179	      3.20507059	     -0.32106947	      0.46600961	      0.00000000	      0.00000000	     28.08656677	      2.74732047	     12.23406863	     10.78672781	    -16.25574087	    102.18607031	     16.44467933	     20.64694100	     -6.15327094	     -6.62124872	      2.60522792	    -18.69134781	     69.16961416	     25.48022240	     62.60011789	    -11.75624702	    -19.47050909
      3.93333333	      4.04887889	    -10.18409498	    110.81393704	      0.34606034	      0.53291559	      0.89914766	      8.96423794	     -2.02973613	    -18.98693738	     10.78501069	      0.18823395	     19.14401778	     16.02477582	      0.00000000	      8.05303598	      1.41230851	     -2.44226672	      4.95269334	      0.08644081	     19.41193352	      0.20561858	      0.00000000	      0.46690605	     -0.01853186	      0.15738402	      0.86709122	     -0.02464737	      0.16722052	      0.76707994	     -0.04505835	      0.16722052	      0.53362692	     -0.04505835	      0.13771102	      0.43356895	     -0.03779016	      0.12787452	      0.26679011	     -0.02870584	      0.11803802	      3.33506319	     -0.20963606	      0.87532271	      0.00000000	      0.00000000	     28.13206416	      2.75179993	     12.99869142	     11.65237749	    -16.27912481	    104.45441676	     17.31193933	     22.16108107	     -5.42167771	     -4.83481430	      3.35820940	    -19.18304971	     69.20947751	     27.30867384	     63.62472597	    -11.46786056	    -18.15966469
      3.95000000	      3.99316151	    -10.42846569	    110.72547002	      0.34650887	      0.53209222	      0.90014600	      9.31606307	     -2.11034335	    -18.28970392	     10.68330043	      0.18645877	     19.57083579	     15.61689171	      0.00000000	      8.39393003	      1.61437503	     -1.45293880	      5.02485436	      0.08770025	     19.07928094	     -1.43119991	      0.00000000	      0.47559241	     -0.02505392	      0.12945527	      0.88322267	     -0.03332172	      0.13754622	      0.78135077	     -0.06091611	      0.13754622	      0.54355457	     -0.06091611	      0.11327336	      0.44163511	     -0.05108996	      0.10518240	      0.27175350	     -0.03880853	      0.09709145	      3.39710903	     -0.28341498	      0.71999136	      0.00000000	      0.00000000	     28.14160260	      3.26649375	     13.90379245	     12.97653408	    -15.74489322	    108.81382661	     17.71908813	     21.68676414	     -3.34182710	     -3.58696739	      1.51395416	    -19.59842749	     56.74289358	     30.95695158	     75.84015790	     -8.60779745	    -12.77084461
